<svg width="32" height="32" viewBox="0 0 32 32" fill="none" xmlns="http://www.w3.org/2000/svg">
<path d="M16 2.34277C8.64802 2.34277 2.66669 8.32411 2.66669 15.6761C2.66669 23.0281 8.64802 29.0094 16 29.0094C23.352 29.0094 29.3334 23.0281 29.3334 15.6761C29.3334 8.32411 23.352 2.34277 16 2.34277ZM16 26.3428C10.1187 26.3428 5.33335 21.5574 5.33335 15.6761C5.33335 9.79477 10.1187 5.00944 16 5.00944C21.8814 5.00944 26.6667 9.79477 26.6667 15.6761C26.6667 21.5574 21.8814 26.3428 16 26.3428Z" fill="black"/>
<path d="M17.3334 9.00944H14.6667V16.2281L19.0574 20.6188L20.9427 18.7334L17.3334 15.1241V9.00944Z" fill="black"/>
</svg>
