<svg width="32" height="32" viewBox="0 0 32 32" fill="none" xmlns="http://www.w3.org/2000/svg">
<path d="M16.0001 18.3428C18.9414 18.3428 21.3334 15.9508 21.3334 13.0094C21.3334 10.0681 18.9414 7.67611 16.0001 7.67611C13.0588 7.67611 10.6668 10.0681 10.6668 13.0094C10.6668 15.9508 13.0588 18.3428 16.0001 18.3428ZM16.0001 10.3428C17.4708 10.3428 18.6668 11.5388 18.6668 13.0094C18.6668 14.4801 17.4708 15.6761 16.0001 15.6761C14.5294 15.6761 13.3334 14.4801 13.3334 13.0094C13.3334 11.5388 14.5294 10.3428 16.0001 10.3428Z" fill="black"/>
<path d="M15.2268 28.7614C15.4525 28.9226 15.7228 29.0092 16.0001 29.0092C16.2774 29.0092 16.5478 28.9226 16.7735 28.7614C17.1788 28.4748 26.7055 21.5961 26.6668 13.0094C26.6668 7.12811 21.8815 2.34277 16.0001 2.34277C10.1188 2.34277 5.33346 7.12811 5.33346 13.0028C5.29479 21.5961 14.8215 28.4748 15.2268 28.7614ZM16.0001 5.00944C20.4121 5.00944 24.0001 8.59744 24.0001 13.0161C24.0281 18.9334 18.1495 24.2468 16.0001 25.9894C13.8521 24.2454 7.97213 18.9308 8.00013 13.0094C8.00013 8.59744 11.5881 5.00944 16.0001 5.00944Z" fill="black"/>
</svg>
