<svg width="21" height="15" viewBox="0 0 21 15" fill="none" xmlns="http://www.w3.org/2000/svg">
<path d="M20.593 2.63172C20.4791 2.20912 20.2565 1.82372 19.9474 1.51389C19.6382 1.20405 19.2533 0.980579 18.831 0.865718C17.265 0.435718 11 0.428719 11 0.428719C11 0.428719 4.736 0.421718 3.169 0.832718C2.74693 0.952865 2.36282 1.1795 2.05357 1.49085C1.74431 1.80221 1.52029 2.18784 1.403 2.61072C0.990002 4.17672 0.986002 7.42472 0.986002 7.42472C0.986002 7.42472 0.982002 10.6887 1.392 12.2387C1.622 13.0957 2.297 13.7727 3.155 14.0037C4.737 14.4337 10.985 14.4407 10.985 14.4407C10.985 14.4407 17.25 14.4477 18.816 14.0377C19.2385 13.9231 19.6237 13.7001 19.9337 13.3909C20.2436 13.0817 20.4674 12.697 20.583 12.2747C20.997 10.7097 21 7.46272 21 7.46272C21 7.46272 21.02 4.19772 20.593 2.63172ZM8.996 10.4337L9.001 4.43372L14.208 7.43872L8.996 10.4337Z" fill="black"/>
</svg>
